# MagicaVoxel @ Ephtracy

# group
o 

# material
mtllib Akira-5.mtl
usemtl palette

# normals
vn -1 0 0
vn 1 0 0
vn 0 0 1
vn 0 0 -1
vn 0 -1 0
vn 0 1 0

# texcoords
vt 0.373047 0.5
vt 0.537109 0.5
vt 0.966797 0.5

# verts
v -0.4 2 0.8
v -0.4 2 -0.4
v -0.4 2 -0.8
v -0.4 2 -1.4
v -0.4 2.1 -0.4
v -0.4 2.1 -0.8
v -0.4 2.9 0.8
v -0.4 2.9 -1.4
v 0.4 2 0.8
v 0.4 2 -0.4
v 0.4 2 -0.8
v 0.4 2 -1.4
v 0.4 2.1 -0.4
v 0.4 2.1 -0.8
v 0.4 2.9 0.8
v 0.4 2.9 -1.4
v -0.4 2 0.8
v -0.4 2.9 0.8
v -0.2 2 0.8
v -0.2 2.3 0.8
v -0.1 2 0.8
v -0.1 2.3 0.8
v -0.1 2.6 0.8
v 0.1 2 0.8
v 0.1 2.3 0.8
v 0.1 2.6 0.8
v 0.2 2 0.8
v 0.2 2.3 0.8
v 0.4 2 0.8
v 0.4 2.9 0.8
v -0.4 2 -1.4
v -0.4 2.9 -1.4
v 0.4 2 -1.4
v 0.4 2.9 -1.4
v -0.4 2 0.8
v -0.2 2 0.8
v -0.1 2 0.8
v 0.1 2 0.8
v 0.2 2 0.8
v 0.4 2 0.8
v -0.3 2 0.7
v -0.2 2 0.7
v 0.2 2 0.7
v 0.3 2 0.7
v -0.2 2 -0.3
v -0.1 2 -0.3
v 0.1 2 -0.3
v 0.2 2 -0.3
v -0.4 2 -0.4
v -0.3 2 -0.4
v 0.3 2 -0.4
v 0.4 2 -0.4
v -0.4 2 -0.8
v -0.3 2 -0.8
v -0.2 2 -0.8
v -0.1 2 -0.8
v 0.1 2 -0.8
v 0.2 2 -0.8
v 0.3 2 -0.8
v 0.4 2 -0.8
v -0.1 2 -0.9
v 0.1 2 -0.9
v -0.3 2 -1
v -0.2 2 -1
v 0.2 2 -1
v 0.3 2 -1
v -0.2 2 -1.2
v 0.2 2 -1.2
v -0.4 2 -1.4
v 0.4 2 -1.4
v -0.4 2.9 0.8
v 0.4 2.9 0.8
v -0.4 2.9 -1.4
v 0.4 2.9 -1.4

# faces
f 5/2/1 2/2/1 1/2/1
f 5/1/1 3/1/1 2/1/1
f 6/2/1 4/2/1 3/2/1
f 6/1/1 3/1/1 5/1/1
f 7/2/1 5/2/1 1/2/1
f 7/2/1 6/2/1 5/2/1
f 8/2/1 4/2/1 6/2/1
f 8/2/1 6/2/1 7/2/1
f 9/2/2 10/2/2 13/2/2
f 10/1/2 11/1/2 13/1/2
f 11/2/2 12/2/2 14/2/2
f 13/1/2 11/1/2 14/1/2
f 9/2/2 13/2/2 15/2/2
f 13/2/2 14/2/2 15/2/2
f 14/2/2 12/2/2 16/2/2
f 15/2/2 14/2/2 16/2/2
f 19/2/3 18/2/3 17/2/3
f 20/2/3 18/2/3 19/2/3
f 21/1/3 20/1/3 19/1/3
f 22/2/3 18/2/3 20/2/3
f 22/1/3 20/1/3 21/1/3
f 23/2/3 18/2/3 22/2/3
f 24/3/3 22/3/3 21/3/3
f 24/3/3 23/3/3 22/3/3
f 25/3/3 23/3/3 24/3/3
f 26/2/3 18/2/3 23/2/3
f 26/3/3 23/3/3 25/3/3
f 27/1/3 25/1/3 24/1/3
f 28/2/3 26/2/3 25/2/3
f 28/1/3 25/1/3 27/1/3
f 29/2/3 28/2/3 27/2/3
f 30/2/3 18/2/3 26/2/3
f 30/2/3 28/2/3 29/2/3
f 30/2/3 26/2/3 28/2/3
f 31/2/4 32/2/4 33/2/4
f 33/2/4 32/2/4 34/2/4
f 41/2/5 36/2/5 35/2/5
f 42/1/5 37/1/5 36/1/5
f 42/2/5 36/2/5 41/2/5
f 43/2/5 40/2/5 39/2/5
f 43/1/5 39/1/5 38/1/5
f 44/2/5 40/2/5 43/2/5
f 45/1/5 37/1/5 42/1/5
f 45/1/5 42/1/5 41/1/5
f 46/3/5 38/3/5 37/3/5
f 46/1/5 37/1/5 45/1/5
f 47/1/5 44/1/5 43/1/5
f 47/3/5 38/3/5 46/3/5
f 47/1/5 43/1/5 38/1/5
f 48/1/5 44/1/5 47/1/5
f 49/2/5 41/2/5 35/2/5
f 50/1/5 45/1/5 41/1/5
f 50/2/5 41/2/5 49/2/5
f 51/2/5 40/2/5 44/2/5
f 51/1/5 44/1/5 48/1/5
f 52/2/5 40/2/5 51/2/5
f 53/1/5 50/1/5 49/1/5
f 54/1/5 45/1/5 50/1/5
f 54/1/5 50/1/5 53/1/5
f 55/3/5 46/3/5 45/3/5
f 55/1/5 45/1/5 54/1/5
f 55/3/5 47/3/5 46/3/5
f 55/3/5 48/3/5 47/3/5
f 56/3/5 48/3/5 55/3/5
f 57/3/5 48/3/5 56/3/5
f 58/1/5 52/1/5 51/1/5
f 58/3/5 48/3/5 57/3/5
f 58/1/5 51/1/5 48/1/5
f 59/1/5 52/1/5 58/1/5
f 60/1/5 52/1/5 59/1/5
f 61/3/5 57/3/5 56/3/5
f 61/1/5 56/1/5 55/1/5
f 61/1/5 55/1/5 54/1/5
f 62/1/5 59/1/5 58/1/5
f 62/3/5 57/3/5 61/3/5
f 62/1/5 58/1/5 57/1/5
f 63/2/5 54/2/5 53/2/5
f 63/1/5 61/1/5 54/1/5
f 63/1/5 62/1/5 61/1/5
f 64/1/5 62/1/5 63/1/5
f 65/1/5 59/1/5 62/1/5
f 65/1/5 62/1/5 64/1/5
f 66/2/5 60/2/5 59/2/5
f 66/1/5 59/1/5 65/1/5
f 67/2/5 64/2/5 63/2/5
f 67/1/5 65/1/5 64/1/5
f 68/2/5 66/2/5 65/2/5
f 68/1/5 65/1/5 67/1/5
f 69/2/5 67/2/5 63/2/5
f 69/2/5 63/2/5 53/2/5
f 69/2/5 68/2/5 67/2/5
f 70/2/5 60/2/5 66/2/5
f 70/2/5 68/2/5 69/2/5
f 70/2/5 66/2/5 68/2/5
f 71/2/6 72/2/6 73/2/6
f 73/2/6 72/2/6 74/2/6
