# MagicaVoxel @ Ephtracy

# group
o 

# material
mtllib Player-4.mtl
usemtl palette

# normals
vn -1 0 0
vn 1 0 0
vn 0 0 1
vn 0 0 -1
vn 0 -1 0
vn 0 1 0

# texcoords
vt 0.201172 0.5
vt 0.912109 0.5
vt 0.994141 0.5

# verts
v -0.4 1.5 0.3
v -0.4 1.5 -0.3
v -0.4 1.7 0.3
v -0.4 1.7 -0.3
v -0.4 1.8 0.3
v -0.4 1.8 -0.3
v -0.4 2.5 0.3
v -0.4 2.5 -0.3
v 0.4 1.5 0.3
v 0.4 1.5 -0.3
v 0.4 1.7 0.3
v 0.4 1.7 -0.3
v 0.4 1.8 0.3
v 0.4 1.8 -0.3
v 0.4 2.5 0.3
v 0.4 2.5 -0.3
v -0.4 1.5 0.3
v -0.4 1.7 0.3
v -0.4 1.8 0.3
v -0.4 2.5 0.3
v -0.2 2.4 0.3
v -0.2 2.5 0.3
v -0.1 2.3 0.3
v -0.1 2.4 0.3
v 0.1 2.3 0.3
v 0.1 2.4 0.3
v 0.2 2.4 0.3
v 0.2 2.5 0.3
v 0.4 1.5 0.3
v 0.4 1.7 0.3
v 0.4 1.8 0.3
v 0.4 2.5 0.3
v -0.4 1.5 -0.3
v -0.4 1.7 -0.3
v -0.4 1.8 -0.3
v -0.4 2.5 -0.3
v 0.4 1.5 -0.3
v 0.4 1.7 -0.3
v 0.4 1.8 -0.3
v 0.4 2.5 -0.3
v -0.4 1.5 0.3
v 0.4 1.5 0.3
v -0.4 1.5 -0.3
v 0.4 1.5 -0.3
v -0.4 2.5 0.3
v -0.2 2.5 0.3
v 0.2 2.5 0.3
v 0.4 2.5 0.3
v -0.2 2.5 -0.2
v 0.2 2.5 -0.2
v -0.4 2.5 -0.3
v 0.4 2.5 -0.3

# faces
f 3/2/1 2/2/1 1/2/1
f 4/2/1 2/2/1 3/2/1
f 5/1/1 4/1/1 3/1/1
f 6/1/1 4/1/1 5/1/1
f 7/3/1 6/3/1 5/3/1
f 8/3/1 6/3/1 7/3/1
f 9/2/2 10/2/2 11/2/2
f 11/2/2 10/2/2 12/2/2
f 11/1/2 12/1/2 13/1/2
f 13/1/2 12/1/2 14/1/2
f 13/3/2 14/3/2 15/3/2
f 15/3/2 14/3/2 16/3/2
f 21/3/3 20/3/3 19/3/3
f 22/3/3 20/3/3 21/3/3
f 23/3/3 21/3/3 19/3/3
f 24/1/3 22/1/3 21/1/3
f 24/3/3 21/3/3 23/3/3
f 25/3/3 23/3/3 19/3/3
f 25/1/3 24/1/3 23/1/3
f 26/1/3 22/1/3 24/1/3
f 26/1/3 24/1/3 25/1/3
f 27/3/3 26/3/3 25/3/3
f 27/1/3 22/1/3 26/1/3
f 28/1/3 22/1/3 27/1/3
f 29/2/3 18/2/3 17/2/3
f 30/1/3 19/1/3 18/1/3
f 30/2/3 18/2/3 29/2/3
f 31/3/3 25/3/3 19/3/3
f 31/1/3 19/1/3 30/1/3
f 31/3/3 27/3/3 25/3/3
f 31/3/3 28/3/3 27/3/3
f 32/3/3 28/3/3 31/3/3
f 33/2/4 34/2/4 37/2/4
f 34/1/4 35/1/4 38/1/4
f 37/2/4 34/2/4 38/2/4
f 35/3/4 36/3/4 39/3/4
f 38/1/4 35/1/4 39/1/4
f 39/3/4 36/3/4 40/3/4
f 43/2/5 42/2/5 41/2/5
f 44/2/5 42/2/5 43/2/5
f 45/3/6 46/3/6 49/3/6
f 46/1/6 47/1/6 49/1/6
f 47/3/6 48/3/6 50/3/6
f 49/1/6 47/1/6 50/1/6
f 45/3/6 49/3/6 51/3/6
f 49/3/6 50/3/6 51/3/6
f 50/3/6 48/3/6 52/3/6
f 51/3/6 50/3/6 52/3/6
