# MagicaVoxel @ Ephtracy

# group
o 

# material
mtllib Cerca.mtl
usemtl palette

# normals
vn -1 0 0
vn 1 0 0
vn 0 0 1
vn 0 0 -1
vn 0 -1 0
vn 0 1 0

# texcoords
vt 0.369141 0.5
vt 0.373047 0.5

# verts
v -1.4 0.6 0.0999999
v -1.4 0.6 -0.2
v -1.4 1.1 0.0999999
v -1.4 1.1 -0.2
v -1.4 1.6 0.0999999
v -1.4 1.6 -0.2
v -1.4 2.1 0.0999999
v -1.4 2.1 -0.2
v -0.2 0 0.2
v -0.2 0 -0.3
v -0.2 0.6 0.0999999
v -0.2 0.6 -0.2
v -0.2 1.1 0.0999999
v -0.2 1.1 -0.2
v -0.2 1.6 0.0999999
v -0.2 1.6 -0.2
v -0.2 2.1 0.0999999
v -0.2 2.1 -0.2
v -0.2 2.6 0.2
v -0.2 2.6 -0.3
v 0.3 0 0.2
v 0.3 0 -0.3
v 0.3 0.6 0.0999999
v 0.3 0.6 -0.2
v 0.3 1.1 0.0999999
v 0.3 1.1 -0.2
v 0.3 1.6 0.0999999
v 0.3 1.6 -0.2
v 0.3 2.1 0.0999999
v 0.3 2.1 -0.2
v 0.3 2.6 0.2
v 0.3 2.6 -0.3
v 1.5 0.6 0.0999999
v 1.5 0.6 -0.2
v 1.5 1.1 0.0999999
v 1.5 1.1 -0.2
v 1.5 1.6 0.0999999
v 1.5 1.6 -0.2
v 1.5 2.1 0.0999999
v 1.5 2.1 -0.2
v -0.2 0 0.2
v -0.2 2.6 0.2
v 0.3 0 0.2
v 0.3 2.6 0.2
v -1.4 0.6 0.0999999
v -1.4 1.1 0.0999999
v -1.4 1.6 0.0999999
v -1.4 2.1 0.0999999
v -0.2 0.6 0.0999999
v -0.2 1.1 0.0999999
v -0.2 1.6 0.0999999
v -0.2 2.1 0.0999999
v 0.3 0.6 0.0999999
v 0.3 1.1 0.0999999
v 0.3 1.6 0.0999999
v 0.3 2.1 0.0999999
v 1.5 0.6 0.0999999
v 1.5 1.1 0.0999999
v 1.5 1.6 0.0999999
v 1.5 2.1 0.0999999
v -1.4 0.6 -0.2
v -1.4 1.1 -0.2
v -1.4 1.6 -0.2
v -1.4 2.1 -0.2
v -0.2 0.6 -0.2
v -0.2 1.1 -0.2
v -0.2 1.6 -0.2
v -0.2 2.1 -0.2
v 0.3 0.6 -0.2
v 0.3 1.1 -0.2
v 0.3 1.6 -0.2
v 0.3 2.1 -0.2
v 1.5 0.6 -0.2
v 1.5 1.1 -0.2
v 1.5 1.6 -0.2
v 1.5 2.1 -0.2
v -0.2 0 -0.3
v -0.2 2.6 -0.3
v 0.3 0 -0.3
v 0.3 2.6 -0.3
v -0.2 0 0.2
v 0.3 0 0.2
v -0.2 0 -0.3
v 0.3 0 -0.3
v -1.4 0.6 0.0999999
v -0.2 0.6 0.0999999
v 0.3 0.6 0.0999999
v 1.5 0.6 0.0999999
v -1.4 0.6 -0.2
v -0.2 0.6 -0.2
v 0.3 0.6 -0.2
v 1.5 0.6 -0.2
v -1.4 1.6 0.0999999
v -0.2 1.6 0.0999999
v 0.3 1.6 0.0999999
v 1.5 1.6 0.0999999
v -1.4 1.6 -0.2
v -0.2 1.6 -0.2
v 0.3 1.6 -0.2
v 1.5 1.6 -0.2
v -1.4 1.1 0.0999999
v -0.2 1.1 0.0999999
v 0.3 1.1 0.0999999
v 1.5 1.1 0.0999999
v -1.4 1.1 -0.2
v -0.2 1.1 -0.2
v 0.3 1.1 -0.2
v 1.5 1.1 -0.2
v -1.4 2.1 0.0999999
v -0.2 2.1 0.0999999
v 0.3 2.1 0.0999999
v 1.5 2.1 0.0999999
v -1.4 2.1 -0.2
v -0.2 2.1 -0.2
v 0.3 2.1 -0.2
v 1.5 2.1 -0.2
v -0.2 2.6 0.2
v 0.3 2.6 0.2
v -0.2 2.6 -0.3
v 0.3 2.6 -0.3

# faces
f 3/1/1 2/1/1 1/1/1
f 4/1/1 2/1/1 3/1/1
f 7/1/1 6/1/1 5/1/1
f 8/1/1 6/1/1 7/1/1
f 11/2/1 10/2/1 9/2/1
f 12/2/1 10/2/1 11/2/1
f 13/2/1 11/2/1 9/2/1
f 14/2/1 10/2/1 12/2/1
f 15/2/1 13/2/1 9/2/1
f 15/2/1 14/2/1 13/2/1
f 16/2/1 10/2/1 14/2/1
f 16/2/1 14/2/1 15/2/1
f 17/2/1 15/2/1 9/2/1
f 18/2/1 10/2/1 16/2/1
f 19/2/1 17/2/1 9/2/1
f 19/2/1 18/2/1 17/2/1
f 20/2/1 10/2/1 18/2/1
f 20/2/1 18/2/1 19/2/1
f 21/2/2 22/2/2 23/2/2
f 23/2/2 22/2/2 24/2/2
f 21/2/2 23/2/2 25/2/2
f 24/2/2 22/2/2 26/2/2
f 21/2/2 25/2/2 27/2/2
f 25/2/2 26/2/2 27/2/2
f 26/2/2 22/2/2 28/2/2
f 27/2/2 26/2/2 28/2/2
f 21/2/2 27/2/2 29/2/2
f 28/2/2 22/2/2 30/2/2
f 21/2/2 29/2/2 31/2/2
f 29/2/2 30/2/2 31/2/2
f 30/2/2 22/2/2 32/2/2
f 31/2/2 30/2/2 32/2/2
f 33/1/2 34/1/2 35/1/2
f 35/1/2 34/1/2 36/1/2
f 37/1/2 38/1/2 39/1/2
f 39/1/2 38/1/2 40/1/2
f 43/2/3 42/2/3 41/2/3
f 44/2/3 42/2/3 43/2/3
f 49/1/3 46/1/3 45/1/3
f 50/1/3 46/1/3 49/1/3
f 51/1/3 48/1/3 47/1/3
f 52/1/3 48/1/3 51/1/3
f 57/1/3 54/1/3 53/1/3
f 58/1/3 54/1/3 57/1/3
f 59/1/3 56/1/3 55/1/3
f 60/1/3 56/1/3 59/1/3
f 61/1/4 62/1/4 65/1/4
f 65/1/4 62/1/4 66/1/4
f 63/1/4 64/1/4 67/1/4
f 67/1/4 64/1/4 68/1/4
f 69/1/4 70/1/4 73/1/4
f 73/1/4 70/1/4 74/1/4
f 71/1/4 72/1/4 75/1/4
f 75/1/4 72/1/4 76/1/4
f 77/2/4 78/2/4 79/2/4
f 79/2/4 78/2/4 80/2/4
f 83/2/5 82/2/5 81/2/5
f 84/2/5 82/2/5 83/2/5
f 89/1/5 86/1/5 85/1/5
f 90/1/5 86/1/5 89/1/5
f 91/1/5 88/1/5 87/1/5
f 92/1/5 88/1/5 91/1/5
f 97/1/5 94/1/5 93/1/5
f 98/1/5 94/1/5 97/1/5
f 99/1/5 96/1/5 95/1/5
f 100/1/5 96/1/5 99/1/5
f 101/1/6 102/1/6 105/1/6
f 105/1/6 102/1/6 106/1/6
f 103/1/6 104/1/6 107/1/6
f 107/1/6 104/1/6 108/1/6
f 109/1/6 110/1/6 113/1/6
f 113/1/6 110/1/6 114/1/6
f 111/1/6 112/1/6 115/1/6
f 115/1/6 112/1/6 116/1/6
f 117/2/6 118/2/6 119/2/6
f 119/2/6 118/2/6 120/2/6
