# MagicaVoxel @ Ephtracy

# group
o 

# material
mtllib SheepChique-1.mtl
usemtl palette

# normals
vn -1 0 0
vn 1 0 0
vn 0 0 1
vn 0 0 -1
vn 0 -1 0
vn 0 1 0

# texcoords
vt 0.958984 0.5
vt 0.990234 0.5

# verts
v 1 3.4 1.5
v 1 3.4 1.3
v 1 3.5 1.3
v 1 3.5 1.2
v 1 3.6 1.5
v 1 3.6 1.4
v 1 3.6 1.2
v 1 3.6 1
v 1 3.7 1.4
v 1 3.7 1
v 1.1 3.5 0.8
v 1.1 3.5 0.7
v 1.1 3.6 1
v 1.1 3.6 0.9
v 1.1 3.7 1.1
v 1.1 3.7 1
v 1.1 3.7 0.9
v 1.1 3.8 1.1
v 1.1 3.8 1
v 1.1 3.9 0.8
v 1.1 3.9 0.7
v 1.2 3.4 1.8
v 1.2 3.4 1.6
v 1.2 3.5 1.7
v 1.2 3.5 1.6
v 1.2 3.6 1.5
v 1.2 3.6 1.2
v 1.2 3.6 0.9
v 1.2 3.6 0.8
v 1.2 3.7 1.7
v 1.2 3.7 1.5
v 1.2 3.7 1.2
v 1.2 3.7 1.1
v 1.2 3.7 1
v 1.2 3.7 0.9
v 1.2 3.8 1.8
v 1.2 3.8 1.1
v 1.2 3.8 1
v 1.2 3.8 0.8
v 1.3 3.5 1.6
v 1.3 3.5 1.3
v 1.3 3.6 1.5
v 1.3 3.6 1.3
v 1.3 3.7 1.6
v 1.3 3.7 1.5
v 1.5 3.7 1.9
v 1.5 3.7 1.6
v 1.5 3.8 1.9
v 1.5 3.8 1.6
v 1.1 3.4 1.4
v 1.1 3.4 1.3
v 1.1 3.5 1.5
v 1.1 3.5 1.4
v 1.1 3.5 1.3
v 1.1 3.5 1.2
v 1.1 3.6 1.5
v 1.1 3.6 1.4
v 1.1 3.6 1.2
v 1.1 3.7 1.4
v 1.1 3.7 1.2
v 1.2 3.4 1.5
v 1.2 3.4 1.4
v 1.2 3.5 1.5
v 1.2 3.5 1.4
v 1.3 3.4 1.8
v 1.3 3.4 1.6
v 1.3 3.5 1.7
v 1.3 3.5 1.6
v 1.3 3.7 1.7
v 1.3 3.7 1.6
v 1.3 3.8 1.8
v 1.3 3.8 1.6
v 1.5 3.5 1.6
v 1.5 3.5 1.3
v 1.5 3.6 1.5
v 1.5 3.6 1.3
v 1.5 3.7 1.6
v 1.5 3.7 1.5
v 1.6 3.6 1.5
v 1.6 3.6 0.8
v 1.6 3.7 1.9
v 1.6 3.7 1.5
v 1.6 3.8 1.9
v 1.6 3.8 0.8
v 1.7 3.5 0.8
v 1.7 3.5 0.7
v 1.7 3.9 0.8
v 1.7 3.9 0.7
v 1.5 3.7 1.9
v 1.5 3.8 1.9
v 1.6 3.7 1.9
v 1.6 3.8 1.9
v 1.2 3.4 1.8
v 1.2 3.8 1.8
v 1.3 3.4 1.8
v 1.3 3.8 1.8
v 1.3 3.5 1.6
v 1.3 3.7 1.6
v 1.3 3.8 1.6
v 1.5 3.5 1.6
v 1.5 3.7 1.6
v 1.5 3.8 1.6
v 1 3.4 1.5
v 1 3.6 1.5
v 1.1 3.5 1.5
v 1.1 3.6 1.5
v 1.2 3.4 1.5
v 1.2 3.5 1.5
v 1.2 3.6 1.5
v 1.2 3.7 1.5
v 1.3 3.6 1.5
v 1.3 3.7 1.5
v 1.5 3.6 1.5
v 1.5 3.7 1.5
v 1.6 3.6 1.5
v 1.6 3.7 1.5
v 1 3.6 1.4
v 1 3.7 1.4
v 1.1 3.6 1.4
v 1.1 3.7 1.4
v 1.1 3.6 1.2
v 1.1 3.7 1.2
v 1.2 3.6 1.2
v 1.2 3.7 1.2
v 1.1 3.7 1.1
v 1.1 3.8 1.1
v 1.2 3.7 1.1
v 1.2 3.8 1.1
v 1.1 3.5 0.8
v 1.1 3.9 0.8
v 1.2 3.6 0.8
v 1.2 3.8 0.8
v 1.6 3.6 0.8
v 1.6 3.8 0.8
v 1.7 3.5 0.8
v 1.7 3.9 0.8
v 1.2 3.5 1.7
v 1.2 3.7 1.7
v 1.3 3.5 1.7
v 1.3 3.7 1.7
v 1.2 3.4 1.6
v 1.2 3.5 1.6
v 1.3 3.4 1.6
v 1.3 3.5 1.6
v 1.1 3.4 1.4
v 1.1 3.5 1.4
v 1.2 3.4 1.4
v 1.2 3.5 1.4
v 1 3.4 1.3
v 1 3.5 1.3
v 1.1 3.4 1.3
v 1.1 3.5 1.3
v 1.3 3.5 1.3
v 1.3 3.6 1.3
v 1.5 3.5 1.3
v 1.5 3.6 1.3
v 1 3.5 1.2
v 1 3.6 1.2
v 1.1 3.5 1.2
v 1.1 3.6 1.2
v 1 3.6 1
v 1 3.7 1
v 1.1 3.6 1
v 1.1 3.7 1
v 1.1 3.8 1
v 1.2 3.7 1
v 1.2 3.8 1
v 1.1 3.6 0.9
v 1.1 3.7 0.9
v 1.2 3.6 0.9
v 1.2 3.7 0.9
v 1.1 3.5 0.7
v 1.1 3.9 0.7
v 1.7 3.5 0.7
v 1.7 3.9 0.7
v 1.2 3.4 1.8
v 1.3 3.4 1.8
v 1.2 3.4 1.6
v 1.3 3.4 1.6
v 1 3.4 1.5
v 1.2 3.4 1.5
v 1.1 3.4 1.4
v 1.2 3.4 1.4
v 1 3.4 1.3
v 1.1 3.4 1.3
v 1.3 3.5 1.6
v 1.5 3.5 1.6
v 1 3.5 1.3
v 1.1 3.5 1.3
v 1.3 3.5 1.3
v 1.5 3.5 1.3
v 1 3.5 1.2
v 1.1 3.5 1.2
v 1.1 3.5 0.8
v 1.7 3.5 0.8
v 1.1 3.5 0.7
v 1.7 3.5 0.7
v 1.2 3.6 1.5
v 1.3 3.6 1.5
v 1.5 3.6 1.5
v 1.6 3.6 1.5
v 1.3 3.6 1.3
v 1.5 3.6 1.3
v 1 3.6 1.2
v 1.1 3.6 1.2
v 1.2 3.6 1.2
v 1 3.6 1
v 1.1 3.6 1
v 1.1 3.6 0.9
v 1.2 3.6 0.9
v 1.2 3.6 0.8
v 1.6 3.6 0.8
v 1.5 3.7 1.9
v 1.6 3.7 1.9
v 1.2 3.7 1.7
v 1.3 3.7 1.7
v 1.3 3.7 1.6
v 1.5 3.7 1.6
v 1.2 3.7 1.5
v 1.3 3.7 1.5
v 1.5 3.7 1.5
v 1.6 3.7 1.5
v 1.2 3.5 1.7
v 1.3 3.5 1.7
v 1.2 3.5 1.6
v 1.3 3.5 1.6
v 1.1 3.5 1.5
v 1.2 3.5 1.5
v 1.1 3.5 1.4
v 1.2 3.5 1.4
v 1 3.6 1.5
v 1.1 3.6 1.5
v 1 3.6 1.4
v 1.1 3.6 1.4
v 1 3.7 1.4
v 1.1 3.7 1.4
v 1.1 3.7 1.2
v 1.2 3.7 1.2
v 1.1 3.7 1.1
v 1.2 3.7 1.1
v 1 3.7 1
v 1.1 3.7 1
v 1.2 3.7 1
v 1.1 3.7 0.9
v 1.2 3.7 0.9
v 1.5 3.8 1.9
v 1.6 3.8 1.9
v 1.2 3.8 1.8
v 1.3 3.8 1.8
v 1.3 3.8 1.6
v 1.5 3.8 1.6
v 1.1 3.8 1.1
v 1.2 3.8 1.1
v 1.1 3.8 1
v 1.2 3.8 1
v 1.2 3.8 0.8
v 1.6 3.8 0.8
v 1.1 3.9 0.8
v 1.7 3.9 0.8
v 1.1 3.9 0.7
v 1.7 3.9 0.7

# faces
f 3/2/1 2/2/1 1/2/1
f 5/2/1 3/2/1 1/2/1
f 5/2/1 4/2/1 3/2/1
f 6/2/1 4/2/1 5/2/1
f 7/2/1 4/2/1 6/2/1
f 9/2/1 8/2/1 7/2/1
f 9/2/1 7/2/1 6/2/1
f 10/2/1 8/2/1 9/2/1
f 16/2/1 14/2/1 13/2/1
f 17/2/1 14/2/1 16/2/1
f 18/2/1 16/2/1 15/2/1
f 19/2/1 16/2/1 18/2/1
f 20/1/1 12/1/1 11/1/1
f 21/1/1 12/1/1 20/1/1
f 24/2/1 23/2/1 22/2/1
f 25/2/1 23/2/1 24/2/1
f 30/2/1 24/2/1 22/2/1
f 31/2/1 27/2/1 26/2/1
f 32/2/1 27/2/1 31/2/1
f 35/2/1 29/2/1 28/2/1
f 36/2/1 33/2/1 32/2/1
f 36/2/1 30/2/1 22/2/1
f 36/2/1 31/2/1 30/2/1
f 36/2/1 32/2/1 31/2/1
f 37/2/1 33/2/1 36/2/1
f 38/2/1 35/2/1 34/2/1
f 39/2/1 29/2/1 35/2/1
f 39/2/1 35/2/1 38/2/1
f 42/2/1 41/2/1 40/2/1
f 43/2/1 41/2/1 42/2/1
f 44/2/1 42/2/1 40/2/1
f 45/2/1 42/2/1 44/2/1
f 48/2/1 47/2/1 46/2/1
f 49/2/1 47/2/1 48/2/1
f 50/2/2 51/2/2 53/2/2
f 53/2/2 51/2/2 54/2/2
f 52/2/2 53/2/2 56/2/2
f 54/2/2 55/2/2 56/2/2
f 53/2/2 54/2/2 56/2/2
f 56/2/2 55/2/2 57/2/2
f 57/2/2 55/2/2 58/2/2
f 57/2/2 58/2/2 59/2/2
f 59/2/2 58/2/2 60/2/2
f 61/2/2 62/2/2 63/2/2
f 63/2/2 62/2/2 64/2/2
f 65/2/2 66/2/2 67/2/2
f 67/2/2 66/2/2 68/2/2
f 65/2/2 67/2/2 69/2/2
f 65/2/2 69/2/2 71/2/2
f 69/2/2 70/2/2 71/2/2
f 71/2/2 70/2/2 72/2/2
f 73/2/2 74/2/2 75/2/2
f 75/2/2 74/2/2 76/2/2
f 73/2/2 75/2/2 77/2/2
f 77/2/2 75/2/2 78/2/2
f 79/2/2 80/2/2 82/2/2
f 81/2/2 82/2/2 83/2/2
f 82/2/2 80/2/2 84/2/2
f 83/2/2 82/2/2 84/2/2
f 85/1/2 86/1/2 87/1/2
f 87/1/2 86/1/2 88/1/2
f 91/2/3 90/2/3 89/2/3
f 92/2/3 90/2/3 91/2/3
f 95/2/3 94/2/3 93/2/3
f 96/2/3 94/2/3 95/2/3
f 100/2/3 98/2/3 97/2/3
f 100/2/3 99/2/3 98/2/3
f 101/2/3 99/2/3 100/2/3
f 102/2/3 99/2/3 101/2/3
f 105/2/3 104/2/3 103/2/3
f 106/2/3 104/2/3 105/2/3
f 107/2/3 105/2/3 103/2/3
f 108/2/3 105/2/3 107/2/3
f 111/2/3 110/2/3 109/2/3
f 112/2/3 110/2/3 111/2/3
f 115/2/3 114/2/3 113/2/3
f 116/2/3 114/2/3 115/2/3
f 119/2/3 118/2/3 117/2/3
f 120/2/3 118/2/3 119/2/3
f 123/2/3 122/2/3 121/2/3
f 124/2/3 122/2/3 123/2/3
f 127/2/3 126/2/3 125/2/3
f 128/2/3 126/2/3 127/2/3
f 131/1/3 130/1/3 129/1/3
f 132/1/3 130/1/3 131/1/3
f 133/1/3 131/1/3 129/1/3
f 134/1/3 130/1/3 132/1/3
f 135/1/3 133/1/3 129/1/3
f 135/1/3 134/1/3 133/1/3
f 136/1/3 130/1/3 134/1/3
f 136/1/3 134/1/3 135/1/3
f 137/2/4 138/2/4 139/2/4
f 139/2/4 138/2/4 140/2/4
f 141/2/4 142/2/4 143/2/4
f 143/2/4 142/2/4 144/2/4
f 145/2/4 146/2/4 147/2/4
f 147/2/4 146/2/4 148/2/4
f 149/2/4 150/2/4 151/2/4
f 151/2/4 150/2/4 152/2/4
f 153/2/4 154/2/4 155/2/4
f 155/2/4 154/2/4 156/2/4
f 157/2/4 158/2/4 159/2/4
f 159/2/4 158/2/4 160/2/4
f 161/2/4 162/2/4 163/2/4
f 163/2/4 162/2/4 164/2/4
f 164/2/4 165/2/4 166/2/4
f 166/2/4 165/2/4 167/2/4
f 168/2/4 169/2/4 170/2/4
f 170/2/4 169/2/4 171/2/4
f 172/1/4 173/1/4 174/1/4
f 174/1/4 173/1/4 175/1/4
f 178/2/5 177/2/5 176/2/5
f 179/2/5 177/2/5 178/2/5
f 182/2/5 181/2/5 180/2/5
f 183/2/5 181/2/5 182/2/5
f 184/2/5 182/2/5 180/2/5
f 185/2/5 182/2/5 184/2/5
f 190/2/5 187/2/5 186/2/5
f 191/2/5 187/2/5 190/2/5
f 192/2/5 189/2/5 188/2/5
f 193/2/5 189/2/5 192/2/5
f 196/1/5 195/1/5 194/1/5
f 197/1/5 195/1/5 196/1/5
f 202/2/5 199/2/5 198/2/5
f 203/2/5 201/2/5 200/2/5
f 206/2/5 202/2/5 198/2/5
f 206/2/5 203/2/5 202/2/5
f 207/2/5 205/2/5 204/2/5
f 207/2/5 206/2/5 205/2/5
f 208/2/5 206/2/5 207/2/5
f 209/2/5 206/2/5 208/2/5
f 210/2/5 203/2/5 206/2/5
f 210/2/5 206/2/5 209/2/5
f 211/2/5 203/2/5 210/2/5
f 212/2/5 201/2/5 203/2/5
f 212/2/5 203/2/5 211/2/5
f 217/2/5 216/2/5 215/2/5
f 218/2/5 214/2/5 213/2/5
f 219/2/5 217/2/5 215/2/5
f 220/2/5 217/2/5 219/2/5
f 221/2/5 214/2/5 218/2/5
f 222/2/5 214/2/5 221/2/5
f 223/2/6 224/2/6 225/2/6
f 225/2/6 224/2/6 226/2/6
f 227/2/6 228/2/6 229/2/6
f 229/2/6 228/2/6 230/2/6
f 231/2/6 232/2/6 233/2/6
f 233/2/6 232/2/6 234/2/6
f 235/2/6 236/2/6 237/2/6
f 235/2/6 237/2/6 239/2/6
f 237/2/6 238/2/6 239/2/6
f 239/2/6 238/2/6 240/2/6
f 235/2/6 239/2/6 241/2/6
f 241/2/6 239/2/6 242/2/6
f 242/2/6 243/2/6 244/2/6
f 244/2/6 243/2/6 245/2/6
f 248/2/6 249/2/6 250/2/6
f 246/2/6 247/2/6 251/2/6
f 248/2/6 250/2/6 253/2/6
f 250/2/6 251/2/6 253/2/6
f 252/2/6 253/2/6 254/2/6
f 253/2/6 251/2/6 255/2/6
f 254/2/6 253/2/6 255/2/6
f 255/2/6 251/2/6 256/2/6
f 251/2/6 247/2/6 257/2/6
f 256/2/6 251/2/6 257/2/6
f 258/1/6 259/1/6 260/1/6
f 260/1/6 259/1/6 261/1/6
