# MagicaVoxel @ Ephtracy

# group
o 

# material
mtllib Pequena-0.mtl
usemtl palette

# normals
vn -1 0 0
vn 1 0 0
vn 0 0 1
vn 0 0 -1
vn 0 -1 0
vn 0 1 0

# texcoords
vt 0.0644531 0.5
vt 0.537109 0.5
vt 0.990234 0.5
vt 0.994141 0.5

# verts
v -0.4 2.6 1.2
v -0.4 2.6 0.9
v -0.4 2.7 1
v -0.4 2.7 0.9
v -0.4 2.8 1.2
v -0.4 2.8 1
v -0.3 2.3 1.2
v -0.3 2.3 1.1
v -0.3 2.3 0.9
v -0.3 2.5 1.2
v -0.3 2.5 1.1
v -0.3 2.6 1.2
v -0.3 2.6 0.9
v -0.2 2.3 1.4
v -0.2 2.3 1.2
v -0.2 2.4 1.4
v -0.2 2.4 1.3
v -0.2 2.4 1.2
v -0.2 2.5 1.3
v -0.2 2.5 1.2
v -0.2 2.6 1.3
v -0.2 2.6 1.2
v -0.2 2.6 1
v -0.2 2.6 0.9
v -0.2 2.7 1.3
v -0.2 2.7 1.2
v -0.2 2.7 1
v -0.2 2.7 0.9
v -0.1 2.3 1.5
v -0.1 2.3 1.4
v -0.1 2.4 1.5
v -0.1 2.4 1.4
v -0.1 2.4 1.3
v -0.1 2.5 1.5
v -0.1 2.5 1.4
v -0.1 2.5 1.3
v 0.1 2.6 1.3
v 0.1 2.6 1.2
v 0.1 2.7 1.3
v 0.1 2.7 1.2
v 0.1 2.7 1.1
v 0.1 2.8 1.2
v 0.1 2.8 1.1
v 0.3 2.6 1
v 0.3 2.6 0.9
v 0.3 2.7 1.1
v 0.3 2.7 1
v 0.3 2.7 0.9
v 0.3 2.8 1.1
v 0.3 2.8 1
v -0.3 2.6 1
v -0.3 2.6 0.9
v -0.3 2.7 1.1
v -0.3 2.7 1
v -0.3 2.7 0.9
v -0.3 2.8 1.1
v -0.3 2.8 1
v -0.1 2.6 1.3
v -0.1 2.6 1.2
v -0.1 2.7 1.3
v -0.1 2.7 1.2
v -0.1 2.7 1.1
v -0.1 2.8 1.2
v -0.1 2.8 1.1
v 0.1 2.3 1.5
v 0.1 2.3 1.4
v 0.1 2.4 1.5
v 0.1 2.4 1.4
v 0.1 2.4 1.3
v 0.1 2.5 1.5
v 0.1 2.5 1.4
v 0.1 2.5 1.3
v 0.2 2.3 1.4
v 0.2 2.3 1.2
v 0.2 2.4 1.4
v 0.2 2.4 1.3
v 0.2 2.4 1.2
v 0.2 2.5 1.3
v 0.2 2.5 1.2
v 0.2 2.6 1.3
v 0.2 2.6 1.2
v 0.2 2.6 1
v 0.2 2.6 0.9
v 0.2 2.7 1.3
v 0.2 2.7 1.2
v 0.2 2.7 1
v 0.2 2.7 0.9
v 0.3 2.3 1.2
v 0.3 2.3 1.1
v 0.3 2.3 0.9
v 0.3 2.5 1.2
v 0.3 2.5 1.1
v 0.3 2.6 1.2
v 0.3 2.6 0.9
v 0.4 2.6 1.2
v 0.4 2.6 0.9
v 0.4 2.7 1
v 0.4 2.7 0.9
v 0.4 2.8 1.2
v 0.4 2.8 1
v -0.1 2.3 1.5
v -0.1 2.4 1.5
v -0.1 2.5 1.5
v 0.1 2.3 1.5
v 0.1 2.4 1.5
v 0.1 2.5 1.5
v -0.2 2.3 1.4
v -0.2 2.4 1.4
v -0.1 2.3 1.4
v -0.1 2.4 1.4
v 0.1 2.3 1.4
v 0.1 2.4 1.4
v 0.2 2.3 1.4
v 0.2 2.4 1.4
v -0.2 2.4 1.3
v -0.2 2.5 1.3
v -0.2 2.6 1.3
v -0.2 2.7 1.3
v -0.1 2.4 1.3
v -0.1 2.5 1.3
v -0.1 2.6 1.3
v -0.1 2.7 1.3
v 0.1 2.4 1.3
v 0.1 2.5 1.3
v 0.1 2.6 1.3
v 0.1 2.7 1.3
v 0.2 2.4 1.3
v 0.2 2.5 1.3
v 0.2 2.6 1.3
v 0.2 2.7 1.3
v -0.4 2.6 1.2
v -0.4 2.8 1.2
v -0.3 2.3 1.2
v -0.3 2.5 1.2
v -0.3 2.6 1.2
v -0.3 2.7 1.2
v -0.2 2.3 1.2
v -0.2 2.4 1.2
v -0.2 2.5 1.2
v -0.2 2.6 1.2
v -0.2 2.7 1.2
v -0.1 2.6 1.2
v -0.1 2.7 1.2
v -0.1 2.8 1.2
v 0.1 2.6 1.2
v 0.1 2.7 1.2
v 0.1 2.8 1.2
v 0.2 2.3 1.2
v 0.2 2.4 1.2
v 0.2 2.5 1.2
v 0.2 2.6 1.2
v 0.2 2.7 1.2
v 0.3 2.3 1.2
v 0.3 2.5 1.2
v 0.3 2.6 1.2
v 0.3 2.7 1.2
v 0.4 2.6 1.2
v 0.4 2.8 1.2
v -0.3 2.7 1.1
v -0.3 2.8 1.1
v -0.1 2.7 1.1
v -0.1 2.8 1.1
v 0.1 2.7 1.1
v 0.1 2.8 1.1
v 0.3 2.7 1.1
v 0.3 2.8 1.1
v -0.4 2.7 1
v -0.4 2.8 1
v -0.3 2.6 1
v -0.3 2.7 1
v -0.3 2.8 1
v -0.2 2.6 1
v -0.2 2.7 1
v 0.2 2.6 1
v 0.2 2.7 1
v 0.3 2.6 1
v 0.3 2.7 1
v 0.3 2.8 1
v 0.4 2.7 1
v 0.4 2.8 1
v -0.4 2.6 0.9
v -0.4 2.7 0.9
v -0.3 2.3 0.9
v -0.3 2.6 0.9
v -0.3 2.7 0.9
v -0.2 2.6 0.9
v -0.2 2.7 0.9
v -0.1 2.3 0.9
v -0.1 2.4 0.9
v 0.1 2.3 0.9
v 0.1 2.4 0.9
v 0.2 2.6 0.9
v 0.2 2.7 0.9
v 0.3 2.3 0.9
v 0.3 2.6 0.9
v 0.3 2.7 0.9
v 0.4 2.6 0.9
v 0.4 2.7 0.9
v -0.1 2.3 1.5
v 0.1 2.3 1.5
v -0.2 2.3 1.4
v -0.1 2.3 1.4
v 0.1 2.3 1.4
v 0.2 2.3 1.4
v -0.3 2.3 1.2
v -0.2 2.3 1.2
v 0.2 2.3 1.2
v 0.3 2.3 1.2
v -0.3 2.3 1.1
v -0.2 2.3 1.1
v 0.2 2.3 1.1
v 0.3 2.3 1.1
v -0.2 2.3 1
v -0.1 2.3 1
v 0.1 2.3 1
v 0.2 2.3 1
v -0.3 2.3 0.9
v -0.1 2.3 0.9
v 0.1 2.3 0.9
v 0.3 2.3 0.9
v -0.4 2.6 1.2
v -0.3 2.6 1.2
v 0.3 2.6 1.2
v 0.4 2.6 1.2
v -0.4 2.6 0.9
v -0.3 2.6 0.9
v 0.3 2.6 0.9
v 0.4 2.6 0.9
v -0.2 2.4 1.4
v -0.1 2.4 1.4
v 0.1 2.4 1.4
v 0.2 2.4 1.4
v -0.2 2.4 1.3
v -0.1 2.4 1.3
v 0.1 2.4 1.3
v 0.2 2.4 1.3
v -0.1 2.5 1.5
v 0.1 2.5 1.5
v -0.1 2.5 1.4
v 0.1 2.5 1.4
v -0.1 2.5 1.3
v 0.1 2.5 1.3
v -0.1 2.6 1.3
v 0.1 2.6 1.3
v -0.1 2.6 1.2
v 0.1 2.6 1.2
v -0.3 2.6 1
v -0.2 2.6 1
v 0.2 2.6 1
v 0.3 2.6 1
v -0.3 2.6 0.9
v -0.2 2.6 0.9
v 0.2 2.6 0.9
v 0.3 2.6 0.9
v -0.2 2.7 1.3
v -0.1 2.7 1.3
v 0.1 2.7 1.3
v 0.2 2.7 1.3
v -0.2 2.7 1.2
v -0.1 2.7 1.2
v 0.1 2.7 1.2
v 0.2 2.7 1.2
v -0.3 2.7 1.1
v -0.1 2.7 1.1
v 0.1 2.7 1.1
v 0.3 2.7 1.1
v -0.4 2.7 1
v -0.3 2.7 1
v -0.2 2.7 1
v 0.2 2.7 1
v 0.3 2.7 1
v 0.4 2.7 1
v -0.4 2.7 0.9
v -0.3 2.7 0.9
v -0.2 2.7 0.9
v 0.2 2.7 0.9
v 0.3 2.7 0.9
v 0.4 2.7 0.9
v -0.4 2.8 1.2
v -0.1 2.8 1.2
v 0.1 2.8 1.2
v 0.4 2.8 1.2
v -0.3 2.8 1.1
v -0.1 2.8 1.1
v 0.1 2.8 1.1
v 0.3 2.8 1.1
v -0.4 2.8 1
v -0.3 2.8 1
v 0.3 2.8 1
v 0.4 2.8 1

# faces
f 3/3/1 2/3/1 1/3/1
f 4/3/1 2/3/1 3/3/1
f 5/3/1 3/3/1 1/3/1
f 6/3/1 3/3/1 5/3/1
f 10/1/1 8/1/1 7/1/1
f 11/3/1 9/3/1 8/3/1
f 11/1/1 8/1/1 10/1/1
f 12/3/1 11/3/1 10/3/1
f 13/3/1 9/3/1 11/3/1
f 13/3/1 11/3/1 12/3/1
f 16/1/1 15/1/1 14/1/1
f 17/1/1 15/1/1 16/1/1
f 18/1/1 15/1/1 17/1/1
f 19/3/1 18/3/1 17/3/1
f 20/3/1 18/3/1 19/3/1
f 21/2/1 20/2/1 19/2/1
f 22/2/1 20/2/1 21/2/1
f 25/1/1 22/1/1 21/1/1
f 26/1/1 22/1/1 25/1/1
f 27/3/1 24/3/1 23/3/1
f 28/3/1 24/3/1 27/3/1
f 31/1/1 30/1/1 29/1/1
f 32/1/1 30/1/1 31/1/1
f 34/4/1 32/4/1 31/4/1
f 35/1/1 33/1/1 32/1/1
f 35/4/1 32/4/1 34/4/1
f 36/1/1 33/1/1 35/1/1
f 39/1/1 38/1/1 37/1/1
f 40/1/1 38/1/1 39/1/1
f 42/3/1 41/3/1 40/3/1
f 43/3/1 41/3/1 42/3/1
f 47/3/1 45/3/1 44/3/1
f 48/3/1 45/3/1 47/3/1
f 49/3/1 47/3/1 46/3/1
f 50/3/1 47/3/1 49/3/1
f 51/3/2 52/3/2 54/3/2
f 54/3/2 52/3/2 55/3/2
f 53/3/2 54/3/2 56/3/2
f 56/3/2 54/3/2 57/3/2
f 58/1/2 59/1/2 60/1/2
f 60/1/2 59/1/2 61/1/2
f 61/3/2 62/3/2 63/3/2
f 63/3/2 62/3/2 64/3/2
f 65/1/2 66/1/2 67/1/2
f 67/1/2 66/1/2 68/1/2
f 67/4/2 68/4/2 70/4/2
f 68/1/2 69/1/2 71/1/2
f 70/4/2 68/4/2 71/4/2
f 71/1/2 69/1/2 72/1/2
f 73/1/2 74/1/2 75/1/2
f 75/1/2 74/1/2 76/1/2
f 76/1/2 74/1/2 77/1/2
f 76/3/2 77/3/2 78/3/2
f 78/3/2 77/3/2 79/3/2
f 78/2/2 79/2/2 80/2/2
f 80/2/2 79/2/2 81/2/2
f 80/1/2 81/1/2 84/1/2
f 84/1/2 81/1/2 85/1/2
f 82/3/2 83/3/2 86/3/2
f 86/3/2 83/3/2 87/3/2
f 88/1/2 89/1/2 91/1/2
f 89/3/2 90/3/2 92/3/2
f 91/1/2 89/1/2 92/1/2
f 91/3/2 92/3/2 93/3/2
f 92/3/2 90/3/2 94/3/2
f 93/3/2 92/3/2 94/3/2
f 95/3/2 96/3/2 97/3/2
f 97/3/2 96/3/2 98/3/2
f 95/3/2 97/3/2 99/3/2
f 99/3/2 97/3/2 100/3/2
f 104/1/3 102/1/3 101/1/3
f 105/4/3 103/4/3 102/4/3
f 105/1/3 102/1/3 104/1/3
f 106/4/3 103/4/3 105/4/3
f 109/1/3 108/1/3 107/1/3
f 110/1/3 108/1/3 109/1/3
f 113/1/3 112/1/3 111/1/3
f 114/1/3 112/1/3 113/1/3
f 119/3/3 116/3/3 115/3/3
f 120/2/3 117/2/3 116/2/3
f 120/3/3 116/3/3 119/3/3
f 121/1/3 118/1/3 117/1/3
f 121/2/3 117/2/3 120/2/3
f 122/1/3 118/1/3 121/1/3
f 124/3/3 121/3/3 120/3/3
f 125/3/3 121/3/3 124/3/3
f 127/3/3 124/3/3 123/3/3
f 128/2/3 125/2/3 124/2/3
f 128/3/3 124/3/3 127/3/3
f 129/1/3 126/1/3 125/1/3
f 129/2/3 125/2/3 128/2/3
f 130/1/3 126/1/3 129/1/3
f 135/3/3 132/3/3 131/3/3
f 136/3/3 132/3/3 135/3/3
f 137/1/3 134/1/3 133/1/3
f 138/1/3 134/1/3 137/1/3
f 139/3/3 135/3/3 134/3/3
f 139/1/3 134/1/3 138/1/3
f 140/1/3 136/1/3 135/1/3
f 140/3/3 135/3/3 139/3/3
f 141/3/3 132/3/3 136/3/3
f 141/1/3 136/1/3 140/1/3
f 143/3/3 132/3/3 141/3/3
f 144/3/3 132/3/3 143/3/3
f 145/3/3 143/3/3 142/3/3
f 146/3/3 143/3/3 145/3/3
f 152/3/3 147/3/3 146/3/3
f 153/1/3 149/1/3 148/1/3
f 153/1/3 150/1/3 149/1/3
f 154/3/3 151/3/3 150/3/3
f 154/1/3 150/1/3 153/1/3
f 155/1/3 152/1/3 151/1/3
f 155/3/3 151/3/3 154/3/3
f 156/3/3 147/3/3 152/3/3
f 156/1/3 152/1/3 155/1/3
f 157/3/3 156/3/3 155/3/3
f 158/3/3 147/3/3 156/3/3
f 158/3/3 156/3/3 157/3/3
f 159/3/4 160/3/4 161/3/4
f 161/3/4 160/3/4 162/3/4
f 163/3/4 164/3/4 165/3/4
f 165/3/4 164/3/4 166/3/4
f 167/3/4 168/3/4 170/3/4
f 170/3/4 168/3/4 171/3/4
f 169/3/4 170/3/4 172/3/4
f 172/3/4 170/3/4 173/3/4
f 174/3/4 175/3/4 176/3/4
f 176/3/4 175/3/4 177/3/4
f 177/3/4 178/3/4 179/3/4
f 179/3/4 178/3/4 180/3/4
f 181/3/4 182/3/4 184/3/4
f 184/3/4 182/3/4 185/3/4
f 183/3/4 184/3/4 186/3/4
f 183/3/4 186/3/4 188/3/4
f 186/3/4 187/3/4 188/3/4
f 188/3/4 187/3/4 189/3/4
f 188/1/4 189/1/4 190/1/4
f 189/3/4 187/3/4 191/3/4
f 190/1/4 189/1/4 191/1/4
f 190/3/4 191/3/4 192/3/4
f 191/3/4 187/3/4 192/3/4
f 192/3/4 187/3/4 193/3/4
f 190/3/4 192/3/4 194/3/4
f 194/3/4 192/3/4 195/3/4
f 195/3/4 196/3/4 197/3/4
f 197/3/4 196/3/4 198/3/4
f 202/1/5 200/1/5 199/1/5
f 203/1/5 200/1/5 202/1/5
f 206/1/5 202/1/5 201/1/5
f 206/1/5 204/1/5 203/1/5
f 206/1/5 203/1/5 202/1/5
f 207/1/5 204/1/5 206/1/5
f 209/1/5 206/1/5 205/1/5
f 209/1/5 208/1/5 207/1/5
f 209/1/5 207/1/5 206/1/5
f 210/1/5 208/1/5 209/1/5
f 211/1/5 208/1/5 210/1/5
f 212/1/5 208/1/5 211/1/5
f 213/3/5 210/3/5 209/3/5
f 213/1/5 211/1/5 210/1/5
f 214/1/5 211/1/5 213/1/5
f 215/1/5 211/1/5 214/1/5
f 216/3/5 212/3/5 211/3/5
f 216/1/5 211/1/5 215/1/5
f 217/3/5 213/3/5 209/3/5
f 217/3/5 214/3/5 213/3/5
f 218/1/5 215/1/5 214/1/5
f 218/3/5 214/3/5 217/3/5
f 219/3/5 216/3/5 215/3/5
f 219/1/5 215/1/5 218/1/5
f 220/3/5 212/3/5 216/3/5
f 220/3/5 216/3/5 219/3/5
f 225/3/5 222/3/5 221/3/5
f 226/3/5 222/3/5 225/3/5
f 227/3/5 224/3/5 223/3/5
f 228/3/5 224/3/5 227/3/5
f 229/1/6 230/1/6 233/1/6
f 233/1/6 230/1/6 234/1/6
f 231/1/6 232/1/6 235/1/6
f 235/1/6 232/1/6 236/1/6
f 237/4/6 238/4/6 239/4/6
f 239/4/6 238/4/6 240/4/6
f 239/1/6 240/1/6 241/1/6
f 241/1/6 240/1/6 242/1/6
f 243/3/6 244/3/6 245/3/6
f 245/3/6 244/3/6 246/3/6
f 247/3/6 248/3/6 251/3/6
f 251/3/6 248/3/6 252/3/6
f 249/3/6 250/3/6 253/3/6
f 253/3/6 250/3/6 254/3/6
f 255/1/6 256/1/6 259/1/6
f 259/1/6 256/1/6 260/1/6
f 257/1/6 258/1/6 261/1/6
f 261/1/6 258/1/6 262/1/6
f 260/3/6 261/3/6 264/3/6
f 264/3/6 261/3/6 265/3/6
f 264/3/6 265/3/6 268/3/6
f 265/3/6 266/3/6 268/3/6
f 263/3/6 264/3/6 268/3/6
f 268/3/6 266/3/6 269/3/6
f 269/3/6 266/3/6 270/3/6
f 270/3/6 266/3/6 271/3/6
f 267/3/6 268/3/6 273/3/6
f 273/3/6 268/3/6 274/3/6
f 269/3/6 270/3/6 275/3/6
f 275/3/6 270/3/6 276/3/6
f 271/3/6 272/3/6 277/3/6
f 277/3/6 272/3/6 278/3/6
f 279/3/6 280/3/6 283/3/6
f 283/3/6 280/3/6 284/3/6
f 281/3/6 282/3/6 285/3/6
f 285/3/6 282/3/6 286/3/6
f 279/3/6 283/3/6 287/3/6
f 287/3/6 283/3/6 288/3/6
f 286/3/6 282/3/6 289/3/6
f 289/3/6 282/3/6 290/3/6
