# MagicaVoxel @ Ephtracy

# group
o 

# material
mtllib Pedra Misteriosa.mtl
usemtl palette

# normals
vn -1 0 0
vn 1 0 0
vn 0 0 1
vn 0 0 -1
vn 0 -1 0
vn 0 1 0

# texcoords
vt 0.958984 0.5
vt 0.994141 0.5

# verts
v -4 0 4
v -4 0 -4
v -4 8 4
v -4 8 -4
v 4 0 4
v 4 0 -4
v 4 8 4
v 4 8 -4
v -4 0 4
v -4 8 4
v 4 0 4
v 4 8 4
v -4 0 -4
v -4 8 -4
v -0.4 3.9 -4
v -0.4 4 -4
v -0.3 3.9 -4
v -0.3 4 -4
v -0.0999999 3.8 -4
v -0.0999999 3.9 -4
v 0.1 3.8 -4
v 0.1 3.9 -4
v 0.3 3.9 -4
v 0.3 4 -4
v 0.4 3.9 -4
v 0.4 4 -4
v 4 0 -4
v 4 8 -4
v -4 0 4
v 4 0 4
v -4 0 -4
v 4 0 -4
v -4 8 4
v 4 8 4
v -4 8 -4
v 4 8 -4

# faces
f 3/2/1 2/2/1 1/2/1
f 4/2/1 2/2/1 3/2/1
f 5/2/2 6/2/2 7/2/2
f 7/2/2 6/2/2 8/2/2
f 11/2/3 10/2/3 9/2/3
f 12/2/3 10/2/3 11/2/3
f 13/2/4 14/2/4 15/2/4
f 15/2/4 14/2/4 16/2/4
f 13/2/4 15/2/4 17/2/4
f 15/1/4 16/1/4 17/1/4
f 16/2/4 14/2/4 18/2/4
f 17/1/4 16/1/4 18/1/4
f 13/2/4 17/2/4 19/2/4
f 17/2/4 18/2/4 19/2/4
f 19/2/4 18/2/4 20/2/4
f 13/2/4 19/2/4 21/2/4
f 19/1/4 20/1/4 21/1/4
f 20/2/4 18/2/4 22/2/4
f 21/1/4 20/1/4 22/1/4
f 21/2/4 22/2/4 23/2/4
f 22/2/4 18/2/4 23/2/4
f 18/2/4 14/2/4 24/2/4
f 23/2/4 18/2/4 24/2/4
f 21/2/4 23/2/4 25/2/4
f 23/1/4 24/1/4 25/1/4
f 24/2/4 14/2/4 26/2/4
f 25/1/4 24/1/4 26/1/4
f 21/2/4 25/2/4 27/2/4
f 13/2/4 21/2/4 27/2/4
f 25/2/4 26/2/4 27/2/4
f 26/2/4 14/2/4 28/2/4
f 27/2/4 26/2/4 28/2/4
f 31/2/5 30/2/5 29/2/5
f 32/2/5 30/2/5 31/2/5
f 33/2/6 34/2/6 35/2/6
f 35/2/6 34/2/6 36/2/6
