# MagicaVoxel @ Ephtracy

# group
o 

# material
mtllib Sheep.mtl
usemtl palette

# normals
vn -1 0 0
vn 1 0 0
vn 0 0 1
vn 0 0 -1
vn 0 -1 0
vn 0 1 0

# texcoords
vt 0.0527344 0.5
vt 0.962891 0.5
vt 0.990234 0.5

# verts
v -0.9 0 0.8
v -0.9 0 -1.1
v -0.9 1.7 0.8
v -0.9 1.7 -1.1
v -0.5 0.9 1.1
v -0.5 0.9 1
v -0.5 1.1 1.1
v -0.5 1.1 1
v -0.4 0.5 1.3
v -0.4 0.5 0.8
v -0.4 0.6 1.3
v -0.4 0.6 1.2
v -0.4 0.7 1.3
v -0.4 0.7 1.2
v -0.4 0.9 1.1
v -0.4 0.9 1
v -0.4 1.1 1.3
v -0.4 1.1 1.1
v -0.4 1.1 1
v -0.4 1.1 0.8
v 0.4 0.5 1.3
v 0.4 0.5 0.8
v 0.4 0.6 1.3
v 0.4 0.6 1.2
v 0.4 0.7 1.3
v 0.4 0.7 1.2
v 0.4 0.9 1.1
v 0.4 0.9 1
v 0.4 1.1 1.3
v 0.4 1.1 1.1
v 0.4 1.1 1
v 0.4 1.1 0.8
v 0.5 0.9 1.1
v 0.5 0.9 1
v 0.5 1.1 1.1
v 0.5 1.1 1
v 0.9 0 0.8
v 0.9 0 -1.1
v 0.9 1.7 0.8
v 0.9 1.7 -1.1
v -0.4 0.5 1.3
v -0.4 0.6 1.3
v -0.4 0.7 1.3
v -0.4 1.1 1.3
v -0.3 0.8 1.3
v -0.3 0.9 1.3
v -0.2 0.6 1.3
v -0.2 0.7 1.3
v -0.2 0.8 1.3
v -0.2 0.9 1.3
v 0.2 0.6 1.3
v 0.2 0.7 1.3
v 0.2 0.8 1.3
v 0.2 0.9 1.3
v 0.3 0.8 1.3
v 0.3 0.9 1.3
v 0.4 0.5 1.3
v 0.4 0.6 1.3
v 0.4 0.7 1.3
v 0.4 1.1 1.3
v -0.5 0.9 1.1
v -0.5 1.1 1.1
v -0.4 0.9 1.1
v -0.4 1.1 1.1
v 0.4 0.9 1.1
v 0.4 1.1 1.1
v 0.5 0.9 1.1
v 0.5 1.1 1.1
v -0.9 0 0.8
v -0.9 1.7 0.8
v -0.4 0.5 0.8
v -0.4 1.1 0.8
v 0.4 0.5 0.8
v 0.4 1.1 0.8
v 0.9 0 0.8
v 0.9 1.7 0.8
v -0.5 0.9 1
v -0.5 1.1 1
v -0.4 0.9 1
v -0.4 1.1 1
v 0.4 0.9 1
v 0.4 1.1 1
v 0.5 0.9 1
v 0.5 1.1 1
v -0.9 0 -1.1
v -0.9 1.7 -1.1
v 0.9 0 -1.1
v 0.9 1.7 -1.1
v -0.9 0 0.8
v 0.9 0 0.8
v -0.9 0 -1.1
v 0.9 0 -1.1
v -0.4 0.5 1.3
v 0.4 0.5 1.3
v -0.4 0.5 0.8
v 0.4 0.5 0.8
v -0.5 0.9 1.1
v -0.4 0.9 1.1
v 0.4 0.9 1.1
v 0.5 0.9 1.1
v -0.5 0.9 1
v -0.4 0.9 1
v 0.4 0.9 1
v 0.5 0.9 1
v -0.4 1.1 1.3
v 0.4 1.1 1.3
v -0.5 1.1 1.1
v -0.4 1.1 1.1
v 0.4 1.1 1.1
v 0.5 1.1 1.1
v -0.5 1.1 1
v -0.4 1.1 1
v 0.4 1.1 1
v 0.5 1.1 1
v -0.4 1.1 0.8
v 0.4 1.1 0.8
v -0.9 1.7 0.8
v 0.9 1.7 0.8
v -0.9 1.7 -1.1
v 0.9 1.7 -1.1

# faces
f 3/2/1 2/2/1 1/2/1
f 4/2/1 2/2/1 3/2/1
f 7/3/1 6/3/1 5/3/1
f 8/3/1 6/3/1 7/3/1
f 11/3/1 10/3/1 9/3/1
f 12/3/1 10/3/1 11/3/1
f 13/1/1 12/1/1 11/1/1
f 14/3/1 10/3/1 12/3/1
f 14/1/1 12/1/1 13/1/1
f 15/3/1 14/3/1 13/3/1
f 15/3/1 10/3/1 14/3/1
f 16/3/1 10/3/1 15/3/1
f 17/3/1 15/3/1 13/3/1
f 18/3/1 15/3/1 17/3/1
f 19/3/1 10/3/1 16/3/1
f 20/3/1 10/3/1 19/3/1
f 21/3/2 22/3/2 23/3/2
f 23/3/2 22/3/2 24/3/2
f 23/1/2 24/1/2 25/1/2
f 24/3/2 22/3/2 26/3/2
f 25/1/2 24/1/2 26/1/2
f 25/3/2 26/3/2 27/3/2
f 26/3/2 22/3/2 27/3/2
f 27/3/2 22/3/2 28/3/2
f 25/3/2 27/3/2 29/3/2
f 29/3/2 27/3/2 30/3/2
f 28/3/2 22/3/2 31/3/2
f 31/3/2 22/3/2 32/3/2
f 33/3/2 34/3/2 35/3/2
f 35/3/2 34/3/2 36/3/2
f 37/2/2 38/2/2 39/2/2
f 39/2/2 38/2/2 40/2/2
f 45/3/3 44/3/3 43/3/3
f 46/3/3 44/3/3 45/3/3
f 47/3/3 42/3/3 41/3/3
f 47/1/3 43/1/3 42/1/3
f 48/3/3 45/3/3 43/3/3
f 48/1/3 43/1/3 47/1/3
f 49/2/3 46/2/3 45/2/3
f 49/3/3 45/3/3 48/3/3
f 50/3/3 44/3/3 46/3/3
f 50/2/3 46/2/3 49/2/3
f 51/3/3 49/3/3 48/3/3
f 51/3/3 48/3/3 47/3/3
f 51/3/3 50/3/3 49/3/3
f 51/3/3 47/3/3 41/3/3
f 52/3/3 50/3/3 51/3/3
f 53/3/3 50/3/3 52/3/3
f 54/3/3 44/3/3 50/3/3
f 54/3/3 50/3/3 53/3/3
f 55/3/3 53/3/3 52/3/3
f 55/2/3 54/2/3 53/2/3
f 56/3/3 44/3/3 54/3/3
f 56/2/3 54/2/3 55/2/3
f 57/3/3 51/3/3 41/3/3
f 58/1/3 52/1/3 51/1/3
f 58/3/3 51/3/3 57/3/3
f 59/3/3 55/3/3 52/3/3
f 59/1/3 52/1/3 58/1/3
f 59/3/3 56/3/3 55/3/3
f 60/3/3 44/3/3 56/3/3
f 60/3/3 56/3/3 59/3/3
f 63/3/3 62/3/3 61/3/3
f 64/3/3 62/3/3 63/3/3
f 67/3/3 66/3/3 65/3/3
f 68/3/3 66/3/3 67/3/3
f 71/2/3 70/2/3 69/2/3
f 72/2/3 70/2/3 71/2/3
f 73/2/3 71/2/3 69/2/3
f 74/2/3 70/2/3 72/2/3
f 75/2/3 73/2/3 69/2/3
f 75/2/3 74/2/3 73/2/3
f 76/2/3 70/2/3 74/2/3
f 76/2/3 74/2/3 75/2/3
f 77/3/4 78/3/4 79/3/4
f 79/3/4 78/3/4 80/3/4
f 81/3/4 82/3/4 83/3/4
f 83/3/4 82/3/4 84/3/4
f 85/2/4 86/2/4 87/2/4
f 87/2/4 86/2/4 88/2/4
f 91/2/5 90/2/5 89/2/5
f 92/2/5 90/2/5 91/2/5
f 95/3/5 94/3/5 93/3/5
f 96/3/5 94/3/5 95/3/5
f 101/3/5 98/3/5 97/3/5
f 102/3/5 98/3/5 101/3/5
f 103/3/5 100/3/5 99/3/5
f 104/3/5 100/3/5 103/3/5
f 105/3/6 106/3/6 108/3/6
f 108/3/6 106/3/6 109/3/6
f 107/3/6 108/3/6 111/3/6
f 109/3/6 110/3/6 111/3/6
f 108/3/6 109/3/6 111/3/6
f 111/3/6 110/3/6 112/3/6
f 112/3/6 110/3/6 113/3/6
f 113/3/6 110/3/6 114/3/6
f 112/3/6 113/3/6 115/3/6
f 115/3/6 113/3/6 116/3/6
f 117/2/6 118/2/6 119/2/6
f 119/2/6 118/2/6 120/2/6
